<svg xmlns="http://www.w3.org/2000/svg" viewBox="0 0 301.333 66.667" height="66.667" width="301.333">
  <defs>
    <clipPath id="a">
      <path d="M0 50h226V0H0z"/>
    </clipPath>
  </defs>
  <g clip-path="url(#a)" transform="matrix(1.33333 0 0 -1.33333 0 66.667)">
    <path d="M30.03 45.606c0-.623-.433-1.541-1.302-2.751L18.686 28.868v-13.29c0-2.779-1.15-4.168-3.447-4.168-2.3 0-3.448 1.389-3.448 4.168V28.87L1.804 42.805C.934 44.017.5 44.985.5 45.705c0 .819.317 1.465.948 1.941.63.476 1.396.713 2.299.713 1.3 0 2.454-.715 3.465-2.146L15.24 34.92l8.116 11.304c1.049 1.423 2.243 2.135 3.58 2.135.868 0 1.6-.263 2.198-.786.598-.526.896-1.181.896-1.967M53.482 22.42c0-3.57-1.105-6.315-3.312-8.232-2.207-1.918-5.266-2.877-9.174-2.877-3.872 0-6.92.967-9.146 2.901-2.227 1.935-3.34 4.67-3.34 8.208v12.796c0 2.678 1.15 4.017 3.449 4.017 2.297 0 3.446-1.339 3.446-4.017V23.313c0-4.199 1.864-6.299 5.59-6.299 3.728 0 5.593 2.1 5.593 6.3v11.902c0 2.678 1.166 4.017 3.502 4.017 2.26 0 3.392-1.339 3.392-4.017zM97.829 15.477c0-2.678-1.14-4.016-3.418-4.016-2.246 0-3.367 1.338-3.367 4.016v12.251c0 4.098-1.646 6.148-4.94 6.148-1.846 0-3.275-.595-4.287-1.788-.87-1.094-1.304-2.518-1.304-4.275V15.486c0-2.684-1.14-4.025-3.42-4.025-2.243 0-3.365 1.341-3.365 4.025v12.178c0 4.142-1.72 6.212-5.156 6.212-3.62 0-5.43-1.97-5.43-5.915V15.486c0-2.684-1.122-4.025-3.364-4.025-2.28 0-3.42 1.341-3.42 4.023V35.11c0 2.65 1.12 3.975 3.366 3.975 1.736 0 2.876-.86 3.418-2.579 1.88 1.82 4.325 2.728 7.33 2.728 3.582 0 6.35-1.373 8.304-4.116 2.352 2.743 5.374 4.116 9.066 4.116 3.184 0 5.663-.992 7.436-2.977 1.7-1.85 2.55-4.248 2.55-7.19zM144.294 15.477c0-2.678-1.139-4.016-3.418-4.016-2.246 0-3.366 1.338-3.366 4.016v12.251c0 4.098-1.647 6.148-4.94 6.148-1.846 0-3.276-.595-4.288-1.788-.869-1.094-1.304-2.518-1.304-4.275V15.486c0-2.684-1.139-4.025-3.419-4.025-2.244 0-3.366 1.341-3.366 4.025v12.178c0 4.142-1.719 6.212-5.156 6.212-3.619 0-5.43-1.97-5.43-5.915V15.486c0-2.684-1.122-4.025-3.364-4.025-2.28 0-3.42 1.341-3.42 4.023V35.11c0 2.65 1.12 3.975 3.366 3.975 1.736 0 2.876-.86 3.418-2.579 1.882 1.82 4.325 2.728 7.33 2.728 3.582 0 6.351-1.373 8.304-4.116 2.352 2.743 5.374 4.116 9.066 4.116 3.184 0 5.663-.992 7.436-2.977 1.701-1.85 2.551-4.248 2.551-7.19zM170.35 36.307c0-.562-.164-1.223-.49-1.983L156.78 3.128C156.056 1.376 154.987.5 153.577.5c-.977 0-1.756.273-2.335.818-.58.546-.868 1.262-.868 2.155 0 .66.168 1.355.505 2.081l3.777 8.451-9.004 20.52a4.035 4.035 0 0 0-.38 1.684c0 .86.306 1.578.92 2.156.617.58 1.395.87 2.337.87 1.555 0 2.713-.927 3.474-2.779l6.079-14.928 5.863 15.325c.614 1.587 1.645 2.381 3.093 2.381 2.207 0 3.312-.976 3.312-2.927" fill="#ee3071"/>
    <path d="M193.691 45.036c0-1.951-1.454-2.925-4.36-2.925h-9.265v-8.68h8.34c2.836 0 4.254-.934 4.254-2.803 0-1.934-1.418-2.9-4.254-2.9h-8.34V15.59c0-2.753-1.168-4.128-3.5-4.128-2.264 0-3.394 1.354-3.394 4.066v28.368c0 2.777 1.375 4.165 4.125 4.165h12.27c2.748 0 4.124-1.008 4.124-3.025M204.547 15.62c0-2.706-1.15-4.06-3.446-4.06-2.3 0-3.448 1.354-3.448 4.06v19.555c0 2.706 1.148 4.059 3.448 4.059 2.296 0 3.446-1.337 3.446-4.01zm.597 30.21c0-1.024-.389-1.9-1.166-2.628-.78-.728-1.729-1.091-2.85-1.091-1.123 0-2.08.363-2.878 1.09-.796.729-1.194 1.605-1.194 2.629s.398 1.893 1.194 2.603c.797.71 1.755 1.068 2.877 1.068a4.045 4.045 0 0 0 2.823-1.093c.796-.727 1.194-1.587 1.194-2.578M225.5 36.373c0-1.288-.651-2.113-1.954-2.477-.616-.165-1.846-.247-3.69-.247V15.57c0-2.674-1.159-4.01-3.474-4.01-2.209 0-3.312 1.35-3.312 4.056V33.63h-1.031c-.942 0-1.783.247-2.525.744-.743.496-1.113 1.156-1.113 1.982 0 1.819 1.556 2.73 4.669 2.73v4.81c0 2.645 1.122 3.968 3.366 3.968 2.279 0 3.42-1.34 3.42-4.012v-4.754c1.844 0 3.074-.084 3.69-.248 1.303-.363 1.954-1.19 1.954-2.477" fill="#f6b220"/>
  </g>
</svg>
