<svg xmlns="http://www.w3.org/2000/svg" xmlns:xlink="http://www.w3.org/1999/xlink" width="22" height="19" viewBox="0 0 22 19"><defs><path id="x6zfa" d="M1647 632.332v2.462c-.002.661-.884 1.182-2.2 1.57v2.3c0 .11-.026.214-.072.315.757.302 1.14.661 1.166 1.093h.006v2.462c-.004 1.17-2.75 1.897-5.8 2.237-.022.003-.043.012-.067.012-.007 0-.013-.003-.02-.003-.588.063-1.185.113-1.777.149-.012 0-.023.008-.036.008-.007 0-.013-.005-.02-.005-.75.043-1.489.066-2.18.066-.691 0-1.43-.023-2.181-.066-.007 0-.012.005-.02.005-.012 0-.023-.007-.035-.008a37.147 37.147 0 0 1-1.778-.149c-.007 0-.013.004-.02.004-.023 0-.044-.009-.066-.013-3.051-.34-5.797-1.066-5.8-2.236v-2.462h.005a.751.751 0 0 1 .05-.22c-.717-.328-1.154-.723-1.155-1.189v-2.462h.004c.035-.593.755-1.057 2.196-1.412v-2.458h.005a.749.749 0 0 1 .033-.179c-1.337-.39-2.236-.912-2.238-1.582v-2.462h.006c.131-2.05 8.888-2.112 9.894-2.112 1.006 0 9.762.062 9.894 2.112h.006v2.462a.772.772 0 0 1-.08.33c1.493.358 2.24.828 2.276 1.431zm-2.933 6.33v-1.455a5.6 5.6 0 0 1-1.1.484v1.678c.422-.16.742-.322.935-.486l.125-.105c.025-.04.04-.08.04-.116zm-7.57 1.73l.236-.013v-1.755a38.7 38.7 0 0 1-1.105.033l-.059.001-.302.004v1.759l.398-.004.16-.004c.228-.005.45-.013.672-.021zm-2.177.029h.213v-1.759c-.1 0-.201-.001-.302-.004h-.058c-.37-.007-.739-.018-1.106-.034v1.755c.197.01.395.019.595.025a33.491 33.491 0 0 0 .563.014c.032 0 .063.001.095.003zm-6.583-.77c.282.074.593.148.93.215v-1.717c-.39-.073-.758-.155-1.1-.243v1.7c.012.003.023.005.035.01l.135.036zm7.535 2.877c-.369-.007-.738-.016-1.105-.034v1.758c.47.022.96.036 1.466.04v-1.758l-.302-.005h-.059zm1.397.001l-.303.005v1.758c.507-.005.996-.019 1.467-.04v-1.758c-.367.017-.737.027-1.106.034l-.058.001zm1.897-.075v1.755c.382-.026.748-.056 1.1-.093v-1.747c-.36.033-.728.062-1.1.085zm1.834 1.58c.388-.05.754-.104 1.1-.162v-1.728c-.355.056-.722.106-1.1.15zm1.833-.298c.406-.083.773-.17 1.1-.26v-1.7c-.342.088-.71.17-1.1.243zm-13.566-1.96v1.7c.326.09.694.177 1.1.26v-1.717c-.39-.074-.758-.155-1.1-.244zm1.833 2.096c.345.059.712.112 1.1.161v-1.74a27.989 27.989 0 0 1-1.1-.148zm1.833.244c.352.037.72.067 1.1.094v-1.755c-.372-.024-.74-.053-1.1-.086zm0-3.779v-1.753c-.371-.023-.74-.052-1.1-.084v1.746l.08.008.11.012c.298.028.602.05.91.071zm-2.933-2.063v1.728c.345.058.712.112 1.1.16v-1.739a27.903 27.903 0 0 1-1.1-.149zm8.47 2.034c.238-.017.47-.039.696-.062V638.5c-.36.033-.728.062-1.1.085v1.754l.245-.017.16-.013zm2.53-.306v-1.728c-.355.056-.722.105-1.1.15v1.738c.387-.048.754-.102 1.1-.16zm.733-.136c.406-.083.773-.17 1.1-.261v-1.7c-.342.09-.71.17-1.1.244zm-4.933-3.323c.174.004.354.004.533.006v-1.755l-.303-.005c-.019 0-.038 0-.057-.002-.37-.006-.739-.016-1.106-.034v1.757l.042.002a36.877 36.877 0 0 0 .89.031zm-8.236-4.926a15.9 15.9 0 0 0 .703.156v-1.717c-.39-.074-.758-.154-1.1-.243v1.7c.126.034.258.07.397.104zm6.208-1.051c-.369-.007-.738-.018-1.106-.034v1.755c.483.023.974.035 1.467.04v-1.757c-.1 0-.201-.002-.302-.004h-.059zm1.397 0c-.1.002-.202.004-.302.004v1.758c.132-.002.265-.002.396-.005l.119-.002c.254-.006.505-.013.75-.024h.016l.185-.01v-1.755c-.367.015-.736.026-1.106.034h-.058zm8.498.004v-1.457a5.563 5.563 0 0 1-1.1.485v1.674c.38-.142.678-.288.872-.432l.133-.1.01.002c.055-.061.085-.12.085-.172zm-3.667 1.336v-1.724c-.355.054-.722.104-1.1.148v1.737c.386-.047.752-.102 1.1-.16zm1.833-.396v-1.697c-.342.089-.71.169-1.1.243v1.715c.402-.082.772-.17 1.1-.261zm-4.766-1.017v1.751c.379-.026.745-.057 1.1-.093v-1.745c-.361.033-.729.062-1.1.087zm-5.134 1.75v-1.75c-.371-.025-.74-.054-1.1-.087v1.746c.359.036.727.066 1.1.09zm-2.933-2.06v1.726l.12.02c.203.034.41.065.622.095l.138.017c.072.012.147.02.22.028v-1.739a29.158 29.158 0 0 1-1.1-.148zm5.133 6.285v-1.755c-.371-.023-.739-.05-1.1-.085v1.747l.03.004.143.014a34.28 34.28 0 0 0 .836.069c.03.003.062.004.091.006zm-2.488-.265c.21.031.43.061.655.09v-1.741a29.168 29.168 0 0 1-1.1-.148v1.726l.42.069c.008 0 .017.002.025.004zm-2.279-2.168v1.693c.328.093.695.182 1.1.265v-1.715c-.389-.073-.757-.154-1.1-.243zm-1.833-.699v1.458c0 .01.004.022.006.032l.025.04c.121.193.493.412 1.07.626v-1.672a5.6 5.6 0 0 1-1.1-.484zm9.836 1.453c-.1 0-.202.003-.302.005v1.754a39.41 39.41 0 0 0 1.466-.04v-1.755c-.367.017-.736.028-1.106.034l-.058.002zm4.831 1.342v-1.727c-.355.054-.722.104-1.1.147v1.74l.284-.035a29.287 29.287 0 0 0 .782-.119l.034-.006zm-2.478.303c.219-.017.432-.039.645-.06v-1.746c-.361.034-.729.062-1.1.085v1.752c.138-.01.28-.016.416-.027a.411.411 0 0 0 .039-.004zm4.312-.699v-1.7c-.343.089-.711.17-1.1.243v1.716a18.592 18.592 0 0 0 .94-.217c.054-.013.107-.028.16-.042zm-.287-4.242l-.073.042c-.04.025-.085.05-.129.073-.038.021-.074.043-.115.064-.09.047-.19.092-.29.136l-.083.034a8.353 8.353 0 0 1-.744.267l-.14.04-.233.066c-1.718.47-4.187.775-6.851.815a31.687 31.687 0 0 1-1.418-.005c-.46-.01-.915-.029-1.364-.054l-.007.002c-.005 0-.009-.003-.014-.003a33.984 33.984 0 0 1-1.818-.15h-.002l-.007-.001a25.948 25.948 0 0 1-2.396-.368c-.15-.03-.297-.062-.44-.095l-.079-.017c-.004.008-.004.014-.006.021.042.237.605.552 1.604.85 1.297.384 3.328.736 5.9.845.131.005.263.011.397.015a41.42 41.42 0 0 0 2.521 0l.397-.014c2.573-.11 4.603-.462 5.9-.847 1.007-.299 1.572-.616 1.605-.855-.041-.145-.474-.518-2.115-.861zm-18.408-3.354c.044.239.607.552 1.604.848 1.297.385 3.327.737 5.899.846l.397.015.332.01a45.454 45.454 0 0 0 2.19-.01c.134-.004.265-.01.397-.015 2.572-.109 4.602-.461 5.9-.846.996-.296 1.559-.61 1.603-.848-.057-.523-3.115-1.436-9.161-1.436-6.046 0-9.104.913-9.161 1.436zm1.094 3.144v-1.685a5.558 5.558 0 0 1-1.1-.485v1.458c0 .198.387.455 1.1.712zm-1.096 4.94c.033.24.597.557 1.606.856 1.297.385 3.327.737 5.899.847l.397.014.332.01a38.116 38.116 0 0 0 1.63.004l.272-.005.248-.007c2.78-.086 4.967-.456 6.336-.862a6.833 6.833 0 0 0 1.085-.407c-1.23.255-2.683.432-4.233.52l-.01.002h-.004a43.92 43.92 0 0 1-2.195.062 38.928 38.928 0 0 1-2.199-.063h-.004c-1.546-.086-2.964-.261-4.153-.504l-.288-.06c-.03-.007-.062-.015-.092-.02-1.294-.286-2.333-.667-2.835-1.154l-.02-.016c-1.36.32-1.731.651-1.772.784zm.882 3.072l.005-.005.209.079v-1.678a5.63 5.63 0 0 1-1.1-.485v1.457c0 .178.31.402.886.632zm1.314 3.951v-1.685a5.493 5.493 0 0 1-1.1-.484v1.457c.001.198.387.455 1.1.712zm17.233-.712v-1.457a5.493 5.493 0 0 1-1.1.484v1.685c.714-.258 1.1-.515 1.1-.712zm-.951-2.992c-.033.022-.073.043-.108.065a4.386 4.386 0 0 1-.118.07c-.033.019-.066.038-.101.056-.644.342-1.58.619-2.663.832-.026.007-.052.01-.077.015l-.35.065c-.573.102-1.19.192-1.842.264-.008 0-.014.005-.023.005l-.006-.002c-.585.064-1.193.116-1.822.152h-.005-.003a35.473 35.473 0 0 1-2.197.063 37.958 37.958 0 0 1-2.199-.063h-.003c-1.84-.105-3.545-.336-4.88-.665l-.18-.044-.118-.032a9.133 9.133 0 0 1-.304-.084l-.035-.01c-.116-.036-.23-.072-.34-.108.071.237.632.542 1.602.828 1.297.385 3.327.737 5.9.847l.399.015.328.01c.304.005.612.01.93.01.317 0 .626-.005.929-.01.112-.003.222-.005.332-.01.134-.004.265-.01.396-.015 2.573-.11 4.603-.46 5.9-.845 1.002-.298 1.565-.614 1.605-.852-.024-.088-.224-.31-.947-.557zm2.052-4.75v-1.456a5.667 5.667 0 0 1-1.1.485v1.684c.713-.257 1.1-.515 1.1-.713z"/></defs><g><g transform="translate(-1625 -626)"><use fill="#f5a918" xlink:href="#x6zfa"/></g></g></svg>