<svg xmlns="http://www.w3.org/2000/svg" xmlns:xlink="http://www.w3.org/1999/xlink" width="43" height="42" viewBox="0 0 43 42"><defs><path id="lvdza" d="M1733.32 2276.377a21.614 21.614 0 0 1-7.82 9.102 21.476 21.476 0 0 1-11.811 3.52c-11.898 0-21.577-9.688-21.577-21.594 0-4.22 1.216-8.306 3.517-11.82a21.612 21.612 0 0 1 9.095-7.826 1.828 1.828 0 0 1 2.194.523c.525.659.535 1.587.024 2.257a16.703 16.703 0 0 0-3.45 10.219 16.833 16.833 0 0 0 11.563 16.004.727.727 0 0 1-.456 1.38 18.254 18.254 0 0 1-9.012-6.561 18.16 18.16 0 0 1-3.548-10.824c0-4.05 1.296-7.89 3.748-11.101a.38.38 0 0 0-.458-.574 20.159 20.159 0 0 0-8.485 7.3 20.07 20.07 0 0 0-3.279 11.023c0 11.105 9.028 20.139 20.124 20.139 3.93 0 7.74-1.135 11.013-3.281a20.184 20.184 0 0 0 7.296-8.49.38.38 0 0 0-.575-.46 18.115 18.115 0 0 1-11.092 3.75c-1.101 0-2.205-.1-3.28-.295a.727.727 0 0 1 .26-1.43c.99.18 2.006.271 3.02.271 3.726 0 7.256-1.194 10.21-3.452a1.827 1.827 0 0 1 2.255.025c.659.525.874 1.429.524 2.195zm-22.18-16.442c0-.402.325-.728.726-.728a3.118 3.118 0 0 0 3.114-3.116.727.727 0 1 1 1.453 0 3.118 3.118 0 0 0 3.114 3.116.727.727 0 0 1 0 1.455 3.12 3.12 0 0 0-3.114 3.117.726.726 0 0 1-1.453 0 3.12 3.12 0 0 0-3.114-3.117.727.727 0 0 1-.727-.727zm3.195 0a4.599 4.599 0 0 1 1.371 1.372 4.598 4.598 0 0 1 1.371-1.372 4.609 4.609 0 0 1-1.37-1.374 4.605 4.605 0 0 1-1.372 1.374zm5.556 7.816a2.264 2.264 0 0 1 2.26-2.262 2.264 2.264 0 0 1 2.261 2.262 2.264 2.264 0 0 1-2.26 2.263 2.264 2.264 0 0 1-2.261-2.263zm1.453 0c0 .446.362.809.807.809a.809.809 0 0 0 0-1.616.808.808 0 0 0-.807.807zm-24.727 17.82a2.264 2.264 0 0 1-2.26 2.262 2.264 2.264 0 0 1-2.261-2.262 2.264 2.264 0 0 1 2.26-2.263 2.264 2.264 0 0 1 2.261 2.263zm-1.453 0a.808.808 0 1 0-1.617-.001.808.808 0 0 0 1.617 0zm20.542-17.819a.911.911 0 1 1 0 1.822.911.911 0 0 1 0-1.822zm-23.795 10.948a.911.911 0 1 1 0 1.822.911.911 0 0 1 0-1.822zm29.638-25.041a.911.911 0 1 1 0 1.822.911.911 0 0 1 0-1.822z"/></defs><g><g transform="translate(-1691 -2247)"><use fill="#fff" xlink:href="#lvdza"/></g></g></svg>