<svg xmlns="http://www.w3.org/2000/svg" width="116" height="116" viewBox="0 0 116.2 116.2"><title>Asset 2</title><g id="Layer_2" data-name="Layer 2"><g id="Слой_1" data-name="Слой 1"><path fill="white" d="M58.1,116.2A58.1,58.1,0,1,0,0,58.1,58.15,58.15,0,0,0,58.1,116.2Zm0-108A49.9,49.9,0,1,1,8.2,58.1,50,50,0,0,1,58.1,8.2Z"/><path fill="white" d="M44.7,87.1a4,4,0,0,0,2.9,1.2,4.18,4.18,0,0,0,2.9-1.2L76.9,60.7a4.1,4.1,0,0,0,0-5.8L50.5,28.5a4.1,4.1,0,0,0-5.8,5.8L68.2,57.8,44.7,81.3A4.1,4.1,0,0,0,44.7,87.1Z"/></g></g></svg>