<svg xmlns="http://www.w3.org/2000/svg" xmlns:xlink="http://www.w3.org/1999/xlink" width="49" height="49" viewBox="0 0 49 49"><defs><path id="lpvta" d="M861.647 2282.381c.23.387.1.887-.287 1.116a15.938 15.938 0 0 1-8.11 2.212c-8.8 0-15.96-7.16-15.96-15.96 0-8.801 7.16-15.96 15.96-15.96s15.96 7.159 15.96 15.96c0 4.645-2.018 9.05-5.538 12.087a.815.815 0 1 1-1.065-1.235 14.324 14.324 0 0 0 4.973-10.852c0-7.902-6.429-14.33-14.33-14.33-7.902 0-14.33 6.428-14.33 14.33 0 7.901 6.428 14.33 14.33 14.33 2.566 0 5.084-.686 7.28-1.985a.815.815 0 0 1 1.117.287zm-19.02-12.632c0 5.857 4.765 10.623 10.623 10.623s10.623-4.766 10.623-10.623c0-2.129-.627-4.183-1.814-5.94a.814.814 0 1 1 1.351-.912 12.192 12.192 0 0 1 2.094 6.852c0 6.756-5.497 12.253-12.254 12.253s-12.254-5.497-12.254-12.253c0-6.757 5.497-12.254 12.254-12.254 3.065 0 5.998 1.138 8.26 3.203a.815.815 0 1 1-1.1 1.204 10.596 10.596 0 0 0-7.16-2.776c-5.858 0-10.623 4.765-10.623 10.623zm9.808-18.732v-4.703c0-.45.365-.816.815-.816.45 0 .815.366.815.816v4.703a.815.815 0 1 1-1.63 0zm1.63 37.463v4.704a.815.815 0 1 1-1.63 0v-4.704a.815.815 0 0 1 1.63 0zm-13.238-38.619a.816.816 0 0 1 1.411-.815l2.352 4.072a.816.816 0 0 1-1.412.816zm24.846 39.776a.814.814 0 1 1-1.412.815l-2.351-4.074a.816.816 0 0 1 1.412-.814zm-33.424-32.014a.814.814 0 0 1 1.113-.297l4.073 2.35a.815.815 0 1 1-.815 1.413l-4.073-2.352a.815.815 0 0 1-.298-1.114zm42.002 24.25a.814.814 0 0 1-1.113.299l-4.073-2.351a.815.815 0 0 1 .815-1.412l4.073 2.351c.39.225.523.724.298 1.113zm-39.733-11.309h-4.703a.815.815 0 1 1 0-1.63h4.703a.815.815 0 1 1 0 1.63zm42.982-.815c0 .45-.365.815-.815.815h-4.703a.815.815 0 1 1 0-1.63h4.703c.45 0 .815.364.815.815zm-39.767 8.958a.816.816 0 0 1-.298 1.114l-4.073 2.35a.813.813 0 0 1-1.113-.298.815.815 0 0 1 .298-1.113l4.073-2.35a.815.815 0 0 1 1.113.297zm31.033-17.917a.815.815 0 0 1 .299-1.113l4.073-2.352a.815.815 0 1 1 .815 1.412l-4.073 2.352a.813.813 0 0 1-1.114-.3zm-24.176 25.588l-2.352 4.074a.815.815 0 0 1-1.411-.815l2.351-4.073a.816.816 0 0 1 1.412.814zm17.32-33.26l2.351-4.072a.816.816 0 0 1 1.412.815l-2.351 4.073a.816.816 0 1 1-1.412-.816z"/></defs><g><g transform="translate(-829 -2245)"><use fill="#fff" xlink:href="#lpvta"/></g></g></svg>