<svg xmlns="http://www.w3.org/2000/svg" xmlns:xlink="http://www.w3.org/1999/xlink" width="21" height="24" viewBox="0 0 21 24"><defs><path id="nqy2a" d="M1660.604 463.152c.427.56.612 1.185.539 1.804-.073.616-.394 1.179-.932 1.635-.234.198-.471.385-.703.562-.339.264-.662.514-.95.793-.005.012-.016.017-.021.025-.83.73-1.814 1.022-2.926.882-.096-.012-.202-.033-.302-.049-1.64-.317-3.042-1.15-4.085-1.832-2.727-1.822-5.021-4.2-6.822-7.078-1.481-2.384-2.408-4.548-2.93-6.826-.212-.93-.465-2.337-.177-3.78a3.685 3.685 0 0 1 1.32-2.183l1.84-1.502c.006-.004.006-.004.011-.01.539-.416 1.137-.6 1.725-.524.587.073 1.116.4 1.526.939.278.338.543.694.796 1.043.125.178.26.358.391.529l1.154 1.531c.887 1.17.726 2.526-.41 3.444-.15.122-.303.251-.454.373-.401.331-.813.673-1.253.994.215.71.54 1.429 1.05 2.29 1.054 1.737 2.205 3.125 3.52 4.24.128.111.282.215.445.33.113.075.23.159.347.245l1.708-1.376c.546-.446 1.146-.634 1.738-.562.598.076 1.13.42 1.537.981zm-1.036.825l-2.328-3.087c-.005-.003-.005-.003-.009-.008-.13-.19-.352-.414-.65-.456-.304-.032-.588.137-.772.285l-1.85 1.496c-.091.075-.373.306-.772.252a1.015 1.015 0 0 1-.462-.186c-.018-.008-.036-.03-.054-.042a6.418 6.418 0 0 0-.445-.323 6.787 6.787 0 0 1-.553-.41c-1.426-1.207-2.67-2.707-3.799-4.574l-.004-.005c-.618-1.054-1.004-1.921-1.244-2.823l-.01-.048c-.052-.293-.08-.723.385-1.102.006-.01.017-.012.027-.018.465-.335.898-.688 1.354-1.062.156-.12.308-.25.464-.38.574-.46.632-.952.184-1.543l-1.154-1.524c-.134-.186-.27-.365-.4-.545a22.437 22.437 0 0 0-.76-1c-.005-.01-.01-.012-.013-.019-.136-.18-.359-.402-.662-.44-.246-.029-.511.062-.775.263l-1.843 1.49c-.45.362-.723.82-.84 1.397-.181.904-.132 1.887.169 3.19.486 2.127 1.36 4.159 2.758 6.417 1.698 2.707 3.861 4.953 6.426 6.664.938.62 2.199 1.366 3.618 1.644.071.015.149.023.22.033.752.094 1.355-.084 1.906-.564.341-.325.698-.607 1.047-.877.233-.183.448-.35.66-.533-.005.003-.005 0 0 0 .554-.467.616-.989.18-1.562z"/></defs><g><g transform="translate(-1641 -445)"><use fill="#f5a918" xlink:href="#nqy2a"/></g></g></svg>