<svg xmlns="http://www.w3.org/2000/svg" xmlns:xlink="http://www.w3.org/1999/xlink" width="19" height="23" viewBox="0 0 19 23"><defs><path id="ihx6a" d="M1647.903 379.935c-1.713-2.069-1.428-5.612-1.397-5.95.111-2.556 1.25-3.77 2.184-4.338.93-.567 1.9-.654 2.393-.654h.075c.899.023 1.704.249 2.393.675.925.568 2.046 1.78 2.157 4.317.031.338.316 3.881-1.396 5.95-.779.939-1.833 1.427-3.136 1.456h-.142c-1.303-.029-2.358-.517-3.131-1.456zm.894-.855c.556.676 1.307 1.015 2.286 1.022h.044c.983-.007 1.73-.346 2.29-1.022 1.415-1.702 1.104-4.943 1.1-4.975-.005-.009-.005-.026-.005-.039-.138-3.23-2.18-3.751-3.38-3.78h-.054c-.97 0-3.233.369-3.38 3.78 0 .01-.005.024-.005.04-.004.025-.306 3.279 1.104 4.974zm11.235 10.339a.635.635 0 0 1-.232.3c-.133.088-3.331 2.277-8.682 2.277-5.35 0-8.548-2.182-8.682-2.277a.608.608 0 0 1-.231-.3c-.236-.638-.231-1.91-.227-2.156v-.015c.005-.037.005-.076.005-.12.026-.941.084-3.143 2.015-3.855.013-.003.026-.01.044-.013 2.015-.549 3.674-1.786 3.691-1.8a.57.57 0 0 1 .837.16.664.664 0 0 1-.147.89c-.076.055-1.846 1.378-4.061 1.988-1.036.397-1.152 1.583-1.183 2.668 0 .044-.004.082-.004.12-.01.425.022 1.09.093 1.47.725.44 3.567 1.957 7.846 1.957 4.296 0 7.12-1.513 7.841-1.951.071-.38.098-1.044.094-1.47-.005-.04-.005-.08-.005-.12-.03-1.087-.147-2.271-1.183-2.671-2.215-.608-3.985-1.928-4.06-1.986a.667.667 0 0 1-.147-.893.574.574 0 0 1 .836-.157c.017.014 1.685 1.25 3.691 1.798.014.007.031.01.045.015 1.93.707 1.988 2.909 2.014 3.855 0 .042.005.08.005.119v.016c.004.246.009 1.517-.213 2.15z"/></defs><g><g transform="translate(-1642 -369)"><use fill="#f5a918" xlink:href="#ihx6a"/></g></g></svg>